<svg width="14" height="16" viewBox="0 0 14 16" fill="none" xmlns="http://www.w3.org/2000/svg">
<path d="M4.03467 7.24542H3.28467V8.74542H4.03467V7.24542ZM10.0347 8.74542H10.7847V7.24542H10.0347V8.74542ZM4.03548 10.2435L3.28548 10.2427L3.28385 11.7427L4.03385 11.7435L4.03548 10.2435ZM10.0339 11.75L10.7839 11.7508L10.7855 10.2508L10.0355 10.25L10.0339 11.75ZM4.03516 4.24738L3.28516 4.24688L3.28418 5.74688L4.03418 5.74738L4.03516 4.24738ZM8.03418 5.75L8.78418 5.75049L8.78516 4.25049L8.03516 4.25L8.03418 5.75ZM10.0347 1L10.565 0.46967L10.3453 0.25H10.0347V1ZM13.0347 4H13.7847V3.68934L13.565 3.46967L13.0347 4ZM4.03467 8.74542H10.0347V7.24542H4.03467V8.74542ZM4.03385 11.7435L10.0339 11.75L10.0355 10.25L4.03548 10.2435L4.03385 11.7435ZM4.03418 5.74738L8.03418 5.75L8.03516 4.25L4.03516 4.24738L4.03418 5.74738ZM12.0347 14.25H2.03467V15.75H12.0347V14.25ZM1.78467 14V2H0.284668V14H1.78467ZM2.03467 1.75H10.0347V0.25H2.03467V1.75ZM12.2847 4V14H13.7847V4H12.2847ZM9.50434 1.53033L12.5043 4.53033L13.565 3.46967L10.565 0.46967L9.50434 1.53033ZM2.03467 14.25C1.8966 14.25 1.78467 14.1381 1.78467 14H0.284668C0.284668 14.9665 1.06817 15.75 2.03467 15.75V14.25ZM12.0347 15.75C13.0012 15.75 13.7847 14.9665 13.7847 14H12.2847C12.2847 14.1381 12.1727 14.25 12.0347 14.25V15.75ZM1.78467 2C1.78467 1.86193 1.8966 1.75 2.03467 1.75V0.25C1.06817 0.25 0.284668 1.0335 0.284668 2H1.78467Z" fill="#0076C8"/>
</svg>
