<svg width="16" height="16" viewBox="0 0 16 16" fill="none" xmlns="http://www.w3.org/2000/svg">
<path d="M7.53467 1L2.53467 1M15.0347 14L15.0347 4C15.0347 3.44772 14.587 3 14.0347 3L2.03467 3C1.48238 3 1.03467 3.44772 1.03467 4L1.03467 14C1.03467 14.5523 1.48238 15 2.03467 15L14.0347 15C14.587 15 15.0347 14.5523 15.0347 14ZM10.0347 11C8.9301 11 8.03467 10.1046 8.03467 9C8.03467 7.89543 8.9301 7 10.0347 7C11.1392 7 12.0347 7.89543 12.0347 9C12.0347 10.1046 11.1392 11 10.0347 11Z" stroke="#0076C8" stroke-width="1.5"/>
</svg>
