<svg width="16" height="18" viewBox="0 0 16 18" fill="none" xmlns="http://www.w3.org/2000/svg">
<path d="M15 9L8.79977 15.1686C7.94291 16.0211 6.78077 16.5 5.569 16.5C3.04561 16.5 1 14.4648 1 11.9543C1 10.7487 1.48138 9.59251 2.33823 8.74003L8.72323 2.3876C9.29447 1.81928 10.0692 1.5 10.8771 1.5C12.5593 1.5 13.9231 2.85678 13.9231 4.53046C13.9231 5.33419 13.6022 6.10499 13.0309 6.67331L6.83069 12.8419C6.54507 13.1261 6.15769 13.2857 5.75377 13.2857C4.91264 13.2857 4.23077 12.6073 4.23077 11.7705C4.23077 11.3686 4.39123 10.9832 4.67685 10.6991L10.6923 4.71429" stroke="#0076C8" strokeWidth="1.5" strokeLinecap="round"/>
</svg>
