<svg width="25" height="26" viewBox="0 0 25 26" fill="none" xmlns="http://www.w3.org/2000/svg">
<path d="M5.12253 7.8774H0M5.12253 18.1225H0M9.01186 19.83V18.976C9.01186 16.6184 10.9231 14.7074 13.2806 14.7074C15.6382 14.7074 17.5494 16.6186 17.5494 18.9762V19.83H9.01186ZM13.2806 6.16989C11.8661 6.16989 10.7194 7.31661 10.7194 8.73116C10.7194 10.1457 11.8661 11.2924 13.2806 11.2924C14.6952 11.2924 15.8419 10.1457 15.8419 8.73116C15.8419 7.31661 14.6952 6.16989 13.2806 6.16989ZM4.26877 1.04736H22.2925C23.2355 1.04736 24 1.81184 24 2.75487V23.245C24 24.188 23.2355 24.9525 22.2925 24.9525H4.26877C3.32574 24.9525 2.56126 24.188 2.56126 23.245V2.75487C2.56126 1.81184 3.32574 1.04736 4.26877 1.04736Z" stroke="#0076C8" strokeWidth="1.5"/>
</svg>
