<svg width="10" height="10" viewBox="0 0 10 10" fill="none" xmlns="http://www.w3.org/2000/svg">
<path d="M1.6665 6.11119L1.13617 5.58086L0.916504 5.80053V6.11119H1.6665ZM6.11095 1.66675L6.64128 1.13642C6.34838 0.843525 5.87351 0.843525 5.58062 1.13642L6.11095 1.66675ZM8.33317 3.88897L8.8635 4.4193C9.15639 4.12641 9.15639 3.65153 8.8635 3.35864L8.33317 3.88897ZM3.88873 8.33341V9.08341H4.19939L4.41906 8.86374L3.88873 8.33341ZM1.6665 8.33341H0.916504C0.916504 8.74763 1.25229 9.08341 1.6665 9.08341L1.6665 8.33341ZM2.19683 6.64152L6.64128 2.19708L5.58062 1.13642L1.13617 5.58086L2.19683 6.64152ZM5.58062 2.19708L7.80284 4.4193L8.8635 3.35864L6.64128 1.13642L5.58062 2.19708ZM7.80284 3.35864L3.3584 7.80308L4.41906 8.86374L8.8635 4.4193L7.80284 3.35864ZM3.88873 7.58341H1.6665V9.08341H3.88873V7.58341ZM2.4165 8.33341V6.11119H0.916504V8.33341H2.4165Z" fill="#0076C8"/>
</svg>
