<svg width="18" height="18" viewBox="0 0 18 18" fill="none" xmlns="http://www.w3.org/2000/svg">
<path d="M6.17143 10.2643L5.72143 9.66429L4.52143 10.5643L4.97143 11.1643L6.17143 10.2643ZM13.0286 11.1643L13.4786 10.5643L12.2786 9.66429L11.8286 10.2643L13.0286 11.1643ZM9 16.25C4.99594 16.25 1.75 13.0041 1.75 9H0.25C0.25 13.8325 4.16751 17.75 9 17.75V16.25ZM16.25 9C16.25 13.0041 13.0041 16.25 9 16.25V17.75C13.8325 17.75 17.75 13.8325 17.75 9H16.25ZM9 1.75C13.0041 1.75 16.25 4.99594 16.25 9H17.75C17.75 4.16751 13.8325 0.25 9 0.25V1.75ZM9 0.25C4.16751 0.25 0.25 4.16751 0.25 9H1.75C1.75 4.99594 4.99594 1.75 9 1.75V0.25ZM5 7.46429H6.14286V5.96429H5V7.46429ZM11.8571 7.46429H13V5.96429H11.8571V7.46429ZM11.8286 10.2643C10.4143 12.15 7.58571 12.15 6.17143 10.2643L4.97143 11.1643C6.98571 13.85 11.0143 13.85 13.0286 11.1643L11.8286 10.2643Z" fill="#0076C8"/>
</svg>
