<svg width="16" height="18" viewBox="0 0 16 18" fill="none" xmlns="http://www.w3.org/2000/svg">
<path d="M2.66667 8.96667H0M16 14.3L13.3333 14.3M16 3.63333L9.06667 3.63334M6.93333 3.63333L1.25038e-06 3.63333M4.8 8.96667L16 8.96667M11.2 14.3H7.84125e-07M9.06667 4.76667V2.5C9.06667 1.94772 8.61895 1.5 8.06667 1.5L7.93333 1.5C7.38105 1.5 6.93333 1.94772 6.93333 2.5L6.93333 4.76667C6.93333 5.31895 7.38105 5.76667 7.93333 5.76667H8.06667C8.61895 5.76667 9.06667 5.31895 9.06667 4.76667ZM4.8 7.83333V10.1C4.8 10.6523 4.35228 11.1 3.8 11.1H3.66667C3.11438 11.1 2.66667 10.6523 2.66667 10.1V7.83333C2.66667 7.28105 3.11438 6.83333 3.66667 6.83333H3.8C4.35228 6.83333 4.8 7.28105 4.8 7.83333ZM13.3333 15.4333V13.1667C13.3333 12.6144 12.8856 12.1667 12.3333 12.1667L12.2 12.1667C11.6477 12.1667 11.2 12.6144 11.2 13.1667V15.4333C11.2 15.9856 11.6477 16.4333 12.2 16.4333L12.3333 16.4333C12.8856 16.4333 13.3333 15.9856 13.3333 15.4333Z" stroke="#0076C8" stroke-width="1.5"/>
</svg>
