<svg width="24" height="24" viewBox="0 0 24 24" fill="none" xmlns="http://www.w3.org/2000/svg">
<path d="M16.6667 3.99984H20V10.9998M7.33333 3.99984H4V19.9998C4 20.7362 4.59695 21.3332 5.33333 21.3332H10M8 2.6665H16V5.33317C16 6.06955 15.403 6.6665 14.6667 6.6665H9.33333C8.59695 6.6665 8 6.06955 8 5.33317V2.6665Z" stroke="#0076C8" stroke-width="2"/>
<path d="M18.1679 20.7929L17.4608 21.5L18.875 22.9142L19.5821 22.2071L18.1679 20.7929ZM22.375 18L23.0821 18.7071L23.7892 18L23.0821 17.2929L22.375 18ZM19.5821 13.7929L18.875 13.0858L17.4608 14.5L18.1679 15.2071L19.5821 13.7929ZM19.5821 22.2071L23.0821 18.7071L21.6679 17.2929L18.1679 20.7929L19.5821 22.2071ZM23.0821 17.2929L19.5821 13.7929L18.1679 15.2071L21.6679 18.7071L23.0821 17.2929ZM22.375 17H13V19H22.375V17Z" fill="#0076C8"/>
</svg>
