<svg width="32" height="30" viewBox="0 0 32 30" fill="none" xmlns="http://www.w3.org/2000/svg">
<path d="M11.6667 29.9002C10.6444 29.9002 9.728 29.6336 8.91733 29.1002C8.10578 28.5669 7.47778 27.8336 7.03333 26.9002C6.67778 27.3669 6.228 27.7278 5.684 27.9829C5.13911 28.2389 4.57778 28.3669 4 28.3669C2.86667 28.3669 1.91689 27.978 1.15067 27.2002C0.383556 26.4225 0 25.478 0 24.3669C0 23.4113 0.311111 22.55 0.933333 21.7829C1.55556 21.0167 2.34444 20.578 3.3 20.4669C2.98889 20.0225 2.75022 19.55 2.584 19.0496C2.41689 18.55 2.33333 18.0225 2.33333 17.4669C2.33333 16.578 2.56133 15.7447 3.01733 14.9669C3.47244 14.1891 4.11111 13.5558 4.93333 13.0669C5.04444 13.4669 5.19422 13.8945 5.38267 14.3496C5.572 14.8056 5.78889 15.2002 6.03333 15.5336C5.72222 15.778 5.47778 16.0722 5.3 16.4162C5.12222 16.7611 5.03333 17.1224 5.03333 17.5002C5.03333 18.7447 5.54445 19.5113 6.56667 19.8002C7.58889 20.0891 8.55556 20.3225 9.46667 20.5002L10.1 21.5669C9.85556 22.278 9.64444 22.8838 9.46667 23.3842C9.28889 23.8838 9.2 24.3336 9.2 24.7336C9.2 25.4002 9.43911 25.9838 9.91733 26.4842C10.3947 26.9838 10.9778 27.2336 11.6667 27.2336C12.5111 27.2336 13.2111 26.8558 13.7667 26.1002C14.3222 25.3447 14.7778 24.4558 15.1333 23.4336C15.4889 22.4113 15.7613 21.378 15.9507 20.3336C16.1391 19.2891 16.2889 18.4891 16.4 17.9336L19 18.6336C18.8 19.6336 18.5556 20.778 18.2667 22.0669C17.9778 23.3558 17.5724 24.5833 17.0507 25.7496C16.528 26.9167 15.8391 27.9002 14.984 28.7002C14.128 29.5002 13.0222 29.9002 11.6667 29.9002ZM4 25.7002C4.37778 25.7002 4.69467 25.5722 4.95067 25.3162C5.20578 25.0611 5.33333 24.7447 5.33333 24.3669C5.33333 23.9891 5.20578 23.6722 4.95067 23.4162C4.69467 23.1611 4.37778 23.0336 4 23.0336C3.62222 23.0336 3.30578 23.1611 3.05067 23.4162C2.79467 23.6722 2.66667 23.9891 2.66667 24.3669C2.66667 24.7447 2.79467 25.0611 3.05067 25.3162C3.30578 25.5722 3.62222 25.7002 4 25.7002ZM13.4667 20.4336C12.4444 19.5224 11.5169 18.6722 10.684 17.8829C9.85022 17.0944 9.13333 16.3282 8.53333 15.5842C7.93333 14.8393 7.47244 14.0944 7.15067 13.3496C6.828 12.6056 6.66667 11.8336 6.66667 11.0336C6.66667 9.58912 7.16133 8.37223 8.15067 7.38289C9.13911 6.39445 10.3556 5.90023 11.8 5.90023C11.8889 5.90023 11.9667 5.90556 12.0333 5.91623C12.1 5.92778 12.1778 5.93356 12.2667 5.93356C12.1778 5.71134 12.1111 5.48912 12.0667 5.26689C12.0222 5.04467 12 4.81134 12 4.56689C12 3.45578 12.3889 2.51134 13.1667 1.73356C13.9444 0.955783 14.8889 0.566895 16 0.566895C17.1111 0.566895 18.0556 0.955783 18.8333 1.73356C19.6111 2.51134 20 3.45578 20 4.56689C20 4.81134 19.9778 5.03889 19.9333 5.24956C19.8889 5.46112 19.8222 5.67801 19.7333 5.90023H20.2C21.5333 5.90023 22.6667 6.32778 23.6 7.18289C24.5333 8.03889 25.0889 9.10023 25.2667 10.3669C24.8667 10.3002 24.4169 10.2669 23.9173 10.2669C23.4169 10.2669 22.9556 10.2891 22.5333 10.3336C22.3778 9.82245 22.0947 9.40023 21.684 9.06689C21.2724 8.73356 20.7778 8.56689 20.2 8.56689C19.4222 8.56689 18.8169 8.7949 18.384 9.25089C17.9502 9.70601 17.3556 10.3669 16.6 11.2336H15.3667C14.5889 10.3225 13.9836 9.65001 13.5507 9.21623C13.1169 8.78334 12.5333 8.56689 11.8 8.56689C11.0889 8.56689 10.5 8.80023 10.0333 9.26689C9.56667 9.73356 9.33333 10.3224 9.33333 11.0336C9.33333 11.5447 9.47778 12.0722 9.76667 12.6162C10.0556 13.1611 10.4613 13.7389 10.984 14.3496C11.5058 14.9611 12.1391 15.6113 12.884 16.3002C13.628 16.9891 14.4556 17.7336 15.3667 18.5336L13.4667 20.4336ZM16 5.90023C16.3778 5.90023 16.6947 5.77223 16.9507 5.51623C17.2058 5.26112 17.3333 4.94467 17.3333 4.56689C17.3333 4.18912 17.2058 3.87223 16.9507 3.61623C16.6947 3.36112 16.3778 3.23356 16 3.23356C15.6222 3.23356 15.3058 3.36112 15.0507 3.61623C14.7947 3.87223 14.6667 4.18912 14.6667 4.56689C14.6667 4.94467 14.7947 5.26112 15.0507 5.51623C15.3058 5.77223 15.6222 5.90023 16 5.90023ZM20.3 29.9002C19.8111 29.9002 19.328 29.8336 18.8507 29.7002C18.3724 29.5669 17.9111 29.3558 17.4667 29.0669C17.7111 28.7558 17.9556 28.3891 18.2 27.9669C18.4444 27.5447 18.6667 27.1558 18.8667 26.8002C19.1111 26.9558 19.3556 27.0669 19.6 27.1336C19.8444 27.2002 20.0889 27.2336 20.3333 27.2336C21.0444 27.2336 21.6387 26.9838 22.116 26.4842C22.5942 25.9838 22.8333 25.3891 22.8333 24.7002C22.8333 24.278 22.7444 23.8225 22.5667 23.3336C22.3889 22.8447 22.1778 22.2447 21.9333 21.5336L22.5667 20.4669C23.5 20.2891 24.4724 20.0558 25.484 19.7669C26.4947 19.478 27 18.7113 27 17.4669C27 16.578 26.6724 15.9336 26.0173 15.5336C25.3613 15.1336 24.6444 14.9336 23.8667 14.9336C22.9333 14.9336 21.8444 15.1113 20.6 15.4669C19.3556 15.8225 17.9 16.278 16.2333 16.8336L15.5333 14.2336C17.2667 13.678 18.8111 13.2113 20.1667 12.8336C21.5222 12.4558 22.7667 12.2669 23.9 12.2669C25.4333 12.2669 26.7778 12.7225 27.9333 13.6336C29.0889 14.5447 29.6667 15.8225 29.6667 17.4669C29.6667 18.0225 29.5831 18.55 29.416 19.0496C29.2498 19.55 29.0111 20.0225 28.7 20.4669C29.6556 20.578 30.4444 21.0167 31.0667 21.7829C31.6889 22.55 32 23.4113 32 24.3669C32 25.478 31.6169 26.4225 30.8507 27.2002C30.0836 27.978 29.1333 28.3669 28 28.3669C27.4222 28.3669 26.8613 28.2389 26.3173 27.9829C25.7724 27.7278 25.3222 27.3669 24.9667 26.9002C24.5222 27.8336 23.8942 28.5669 23.0827 29.1002C22.272 29.6336 21.3444 29.9002 20.3 29.9002ZM28.0333 25.7002C28.4111 25.7002 28.7222 25.5722 28.9667 25.3162C29.2111 25.0611 29.3333 24.7447 29.3333 24.3669C29.3333 23.9891 29.2053 23.6669 28.9493 23.4002C28.6942 23.1336 28.3778 23.0002 28 23.0002C27.6222 23.0002 27.3058 23.1282 27.0507 23.3842C26.7947 23.6393 26.6667 23.9558 26.6667 24.3336C26.6667 24.7113 26.8 25.0336 27.0667 25.3002C27.3333 25.5669 27.6556 25.7002 28.0333 25.7002Z" fill="white"/>
</svg>