<svg width="24" height="22" viewBox="0 0 24 22" fill="none" xmlns="http://www.w3.org/2000/svg">
<path d="M19.2 5.65714V0.982143C19.1997 0.721754 19.0942 0.472116 18.9068 0.287993C18.7193 0.10387 18.4651 0.000298932 18.2 0H5.8C5.53488 0.000298932 5.2807 0.10387 5.09323 0.287993C4.90576 0.472116 4.8003 0.721754 4.8 0.982143V5.65714L0 9.02422V22H24V9.02422L19.2 5.65714ZM21.8839 9.47115L19.2 11.1945V7.58804L21.8839 9.47115ZM6.4 1.57143H17.6V12.2219L14.7417 14.0575L12.4128 12.8714L9.8746 14.0749L6.4 12.003V1.57143ZM12.3872 14.6285L22.4 19.7277V20.4286H1.6V19.7432L12.3872 14.6285ZM1.6 10.9791L8.1572 14.8893L1.6 17.9982V10.9791ZM16.3723 14.8881L22.4 11.017V17.9575L16.3723 14.8881ZM4.8 7.58804V11.0491L2.1333 9.45877L4.8 7.58804Z" fill="#0076C8"/>
</svg>
