<svg width="24" height="24" viewBox="0 0 24 24" fill="none" xmlns="http://www.w3.org/2000/svg">
<path d="M12 12C12.55 12 13.0208 11.8042 13.4125 11.4125C13.8042 11.0208 14 10.55 14 10C14 9.45 13.8042 8.97917 13.4125 8.5875C13.0208 8.19583 12.55 8 12 8C11.45 8 10.9792 8.19583 10.5875 8.5875C10.1958 8.97917 10 9.45 10 10C10 10.55 10.1958 11.0208 10.5875 11.4125C10.9792 11.8042 11.45 12 12 12ZM12 19.35C14.0333 17.4833 15.5417 15.7875 16.525 14.2625C17.5083 12.7375 18 11.3833 18 10.2C18 8.38333 17.4208 6.89583 16.2625 5.7375C15.1042 4.57917 13.6833 4 12 4C10.3167 4 8.89583 4.57917 7.7375 5.7375C6.57917 6.89583 6 8.38333 6 10.2C6 11.3833 6.49167 12.7375 7.475 14.2625C8.45833 15.7875 9.96667 17.4833 12 19.35ZM12 22C9.31667 19.7167 7.3125 17.5958 5.9875 15.6375C4.6625 13.6792 4 11.8667 4 10.2C4 7.7 4.80417 5.70833 6.4125 4.225C8.02083 2.74167 9.88333 2 12 2C14.1167 2 15.9792 2.74167 17.5875 4.225C19.1958 5.70833 20 7.7 20 10.2C20 11.8667 19.3375 13.6792 18.0125 15.6375C16.6875 17.5958 14.6833 19.7167 12 22Z" fill="#605C5C"/>
<path d="M11.6619 19.7183L12 20.0287L12.3381 19.7183C14.3884 17.8361 15.9301 16.1077 16.9452 14.5335C17.9549 12.9676 18.5 11.5179 18.5 10.2C18.5 8.26657 17.8788 6.64669 16.6161 5.38395C15.3611 4.12899 13.8118 3.5 12 3.5C10.1882 3.5 8.6389 4.12899 7.38395 5.38395C6.12121 6.64669 5.5 8.26657 5.5 10.2C5.5 11.5179 6.04512 12.9676 7.05478 14.5335C8.06988 16.1077 9.61163 17.8361 11.6619 19.7183ZM13.0589 11.0589C12.7603 11.3576 12.4163 11.5 12 11.5C11.5837 11.5 11.2397 11.3576 10.9411 11.0589C10.6424 10.7603 10.5 10.4163 10.5 10C10.5 9.58366 10.6424 9.2397 10.9411 8.94105C11.2397 8.64241 11.5837 8.5 12 8.5C12.4163 8.5 12.7603 8.64241 13.0589 8.94105C13.3576 9.2397 13.5 9.58366 13.5 10C13.5 10.4163 13.3576 10.7603 13.0589 11.0589ZM12 21.3414C9.49988 19.1815 7.63927 17.1865 6.40162 15.3573C5.11009 13.4485 4.5 11.733 4.5 10.2C4.5 7.8177 5.26086 5.96732 6.75148 4.59255C8.2709 3.19122 10.0135 2.5 12 2.5C13.9865 2.5 15.7291 3.19122 17.2485 4.59255C18.7391 5.96732 19.5 7.8177 19.5 10.2C19.5 11.733 18.8899 13.4485 17.5984 15.3573C16.3607 17.1865 14.5001 19.1815 12 21.3414Z" stroke="#131516" stroke-opacity="0.03"/>
</svg>
