<svg width="229" height="172" viewBox="0 0 229 172" fill="none" xmlns="http://www.w3.org/2000/svg">
<path d="M116.07 171.853C163.415 171.853 201.795 133.589 201.795 86.3875C201.795 39.1861 163.415 0.921875 116.07 0.921875C68.726 0.921875 30.3457 39.1861 30.3457 86.3875C30.3457 133.589 68.726 171.853 116.07 171.853Z" fill="#DBE8EC"/>
<path d="M228.071 69.7301V61.1364C228.071 59.4977 227.418 57.9261 226.256 56.7673C225.094 55.6085 223.518 54.9576 221.874 54.9576H199.998C198.355 54.9576 196.778 54.3066 195.616 53.1478C194.454 51.989 193.801 50.4174 193.801 48.7787V40.185C193.801 38.5463 194.454 36.9746 195.616 35.8159C196.778 34.6571 198.355 34.0061 199.998 34.0061H200.689C201.503 34.0061 202.309 33.8463 203.061 33.5358C203.813 33.2253 204.496 32.7701 205.071 32.1964C205.647 31.6226 206.103 30.9415 206.415 30.1918C206.726 29.4421 206.887 28.6387 206.887 27.8273V19.2336C206.887 18.4221 206.726 17.6187 206.415 16.869C206.103 16.1193 205.647 15.4382 205.071 14.8644C204.496 14.2907 203.813 13.8355 203.061 13.525C202.309 13.2145 201.503 13.0547 200.689 13.0547H41.7519C40.1082 13.0547 38.5318 13.7057 37.3695 14.8644C36.2072 16.0232 35.5543 17.5948 35.5543 19.2336V27.8273C35.5543 28.6387 35.7146 29.4421 36.026 30.1918C36.3375 30.9415 36.794 31.6226 37.3695 32.1964C37.945 32.7701 38.6282 33.2253 39.3802 33.5358C40.1321 33.8463 40.938 34.0061 41.7519 34.0061C42.5658 34.0061 43.3717 34.1659 44.1236 34.4765C44.8755 34.787 45.5588 35.2421 46.1343 35.8159C46.7098 36.3896 47.1663 37.0708 47.4777 37.8204C47.7892 38.5701 47.9495 39.3736 47.9495 40.185V48.7787C47.9495 49.5901 47.7892 50.3936 47.4777 51.1432C47.1663 51.8929 46.7098 52.574 46.1343 53.1478C45.5588 53.7216 44.8755 54.1767 44.1236 54.4872C43.3717 54.7977 42.5658 54.9576 41.7519 54.9576H17.7852C16.1415 54.9576 14.5651 55.6085 13.4028 56.7673C12.2406 57.9261 11.5876 59.4977 11.5876 61.1364V69.7301C11.5876 71.3689 12.2406 72.9405 13.4028 74.0992C14.5651 75.258 16.1415 75.909 17.7852 75.909H27.1894C28.0032 75.909 28.8092 76.0688 29.5611 76.3793C30.313 76.6898 30.9962 77.145 31.5717 77.7187C32.1472 78.2925 32.6038 78.9737 32.9152 79.7233C33.2267 80.473 33.387 81.2764 33.387 82.0879V90.6816C33.387 91.493 33.2267 92.2965 32.9152 93.0462C32.6038 93.7958 32.1472 94.477 31.5717 95.0507C30.9962 95.6245 30.313 96.0796 29.5611 96.3901C28.8092 96.7006 28.0032 96.8605 27.1894 96.8605H27.1666C26.3527 96.8605 25.5468 97.0203 24.7949 97.3308C24.043 97.6413 23.3598 98.0965 22.7843 98.6702C22.2088 99.244 21.7522 99.9251 21.4408 100.675C21.1293 101.424 20.969 102.228 20.969 103.039V111.633C20.969 113.272 21.622 114.843 22.7843 116.002C23.9465 117.161 25.5229 117.812 27.1666 117.812H28.5272C30.1709 117.812 31.7473 118.463 32.9096 119.622C34.0719 120.78 34.7248 122.352 34.7248 123.991V132.584C34.7248 133.396 34.5645 134.199 34.2531 134.949C33.9416 135.699 33.4851 136.38 32.9096 136.954C32.3341 137.527 31.6509 137.982 30.8989 138.293C30.147 138.604 29.3411 138.763 28.5272 138.763H6.19761C4.5539 138.763 2.97751 139.414 1.81524 140.573C0.652959 141.732 0 143.303 0 144.942V153.536C0 154.347 0.160305 155.151 0.471764 155.9C0.783223 156.65 1.23974 157.331 1.81524 157.905C2.39074 158.479 3.07396 158.934 3.82589 159.244C4.57782 159.555 5.38373 159.715 6.19761 159.715H204.016C204.83 159.715 205.636 159.555 206.388 159.244C207.14 158.934 207.823 158.479 208.399 157.905C208.974 157.331 209.431 156.65 209.742 155.9C210.054 155.151 210.214 154.347 210.214 153.536V144.942C210.214 143.303 209.561 141.732 208.399 140.573C207.237 139.414 205.66 138.763 204.016 138.763H198.643C197.829 138.763 197.023 138.604 196.271 138.293C195.519 137.982 194.836 137.527 194.26 136.954C193.685 136.38 193.228 135.699 192.917 134.949C192.606 134.199 192.445 133.396 192.445 132.584V123.991C192.445 123.179 192.606 122.376 192.917 121.626C193.228 120.877 193.685 120.195 194.26 119.622C194.836 119.048 195.519 118.593 196.271 118.282C197.023 117.972 197.829 117.812 198.643 117.812H211.313C212.127 117.812 212.933 117.652 213.685 117.342C214.437 117.031 215.12 116.576 215.696 116.002C216.271 115.428 216.728 114.747 217.039 113.998C217.351 113.248 217.511 112.444 217.511 111.633V103.039C217.511 102.228 217.351 101.424 217.039 100.675C216.728 99.9251 216.271 99.244 215.696 98.6702C215.12 98.0965 214.437 97.6413 213.685 97.3308C212.933 97.0203 212.127 96.8605 211.313 96.8605H207.47C205.826 96.8605 204.25 96.2095 203.087 95.0507C201.925 93.892 201.272 92.3203 201.272 90.6816V82.0879C201.272 80.4491 201.925 78.8775 203.087 77.7187C204.25 76.56 205.826 75.909 207.47 75.909H221.874C223.518 75.909 225.094 75.258 226.256 74.0992C227.418 72.9405 228.071 71.3689 228.071 69.7301Z" fill="#DBE8EC"/>
<path d="M151.152 10.7305H167.665" stroke="#B9D4DB" strokeWidth="3" strokeMiterlimit="10" strokeLinecap="round"/>
<path d="M151.152 15.4766H167.665" stroke="#B9D4DB" strokeWidth="3" strokeMiterlimit="10" strokeLinecap="round"/>
<path d="M151.152 20.2188H167.665" stroke="#B9D4DB" strokeWidth="3" strokeMiterlimit="10" strokeLinecap="round"/>
<path d="M162.592 142.797H179.105" stroke="#B9D4DB" strokeWidth="3" strokeMiterlimit="10" strokeLinecap="round"/>
<path d="M162.592 147.543H179.105" stroke="#B9D4DB" strokeWidth="3" strokeMiterlimit="10" strokeLinecap="round"/>
<path d="M162.592 152.289H179.105" stroke="#B9D4DB" strokeWidth="3" strokeMiterlimit="10" strokeLinecap="round"/>
<path d="M25.5508 64.3164H42.0638" stroke="#B9D4DB" strokeWidth="3" strokeMiterlimit="10" strokeLinecap="round"/>
<path d="M25.5508 69.0586H42.0638" stroke="#B9D4DB" strokeWidth="3" strokeMiterlimit="10" strokeLinecap="round"/>
<path d="M25.5508 73.8047H42.0638" stroke="#B9D4DB" strokeWidth="3" strokeMiterlimit="10" strokeLinecap="round"/>
<path d="M106.976 163.269C110.874 163.269 114.034 160.119 114.034 156.232C114.034 152.346 110.874 149.195 106.976 149.195C103.078 149.195 99.918 152.346 99.918 156.232C99.918 160.119 103.078 163.269 106.976 163.269Z" fill="#B9D4DB"/>
<path d="M97.5661 143.071C99.5873 143.071 101.226 141.437 101.226 139.422C101.226 137.407 99.5873 135.773 97.5661 135.773C95.5448 135.773 93.9062 137.407 93.9062 139.422C93.9062 141.437 95.5448 143.071 97.5661 143.071Z" fill="#B9D4DB"/>
<path d="M121.506 148.28C124.393 148.28 126.734 145.947 126.734 143.068C126.734 140.189 124.393 137.855 121.506 137.855C118.618 137.855 116.277 140.189 116.277 143.068C116.277 145.947 118.618 148.28 121.506 148.28Z" fill="#B9D4DB"/>
<path d="M31.8686 124.097C36.5066 124.097 40.2665 120.348 40.2665 115.724C40.2665 111.1 36.5066 107.352 31.8686 107.352C27.2306 107.352 23.4707 111.1 23.4707 115.724C23.4707 120.348 27.2306 124.097 31.8686 124.097Z" fill="#B9D4DB"/>
<path d="M15.8216 114.121C18.2375 114.121 20.1959 112.168 20.1959 109.76C20.1959 107.351 18.2375 105.398 15.8216 105.398C13.4057 105.398 11.4473 107.351 11.4473 109.76C11.4473 112.168 13.4057 114.121 15.8216 114.121Z" fill="#B9D4DB"/>
<path d="M19.8396 97.4492C21.2332 97.4492 22.3629 96.3229 22.3629 94.9336C22.3629 93.5442 21.2332 92.418 19.8396 92.418C18.4461 92.418 17.3164 93.5442 17.3164 94.9336C17.3164 96.3229 18.4461 97.4492 19.8396 97.4492Z" fill="#B9D4DB"/>
<path d="M33.8066 102.745C37.1472 102.745 39.8554 100.045 39.8554 96.7141C39.8554 93.3835 37.1472 90.6836 33.8066 90.6836C30.4659 90.6836 27.7578 93.3835 27.7578 96.7141C27.7578 100.045 30.4659 102.745 33.8066 102.745Z" fill="#B9D4DB"/>
<path d="M84.726 29.8036C89.3641 29.8036 93.1239 26.0551 93.1239 21.4311C93.1239 16.8071 89.3641 13.0586 84.726 13.0586C80.088 13.0586 76.3281 16.8071 76.3281 21.4311C76.3281 26.0551 80.088 29.8036 84.726 29.8036Z" fill="#B9D4DB"/>
<path d="M85.0677 8.72221C87.4836 8.72221 89.442 6.76967 89.442 4.3611C89.442 1.95253 87.4836 0 85.0677 0C82.6518 0 80.6934 1.95253 80.6934 4.3611C80.6934 6.76967 82.6518 8.72221 85.0677 8.72221Z" fill="#B9D4DB"/>
<path d="M114.204 10.6819C116.295 10.6819 117.99 8.99196 117.99 6.90735C117.99 4.82273 116.295 3.13281 114.204 3.13281C112.113 3.13281 110.418 4.82273 110.418 6.90735C110.418 8.99196 112.113 10.6819 114.204 10.6819Z" fill="#B9D4DB"/>
<path d="M100.429 5.75776C101.823 5.75776 102.953 4.63148 102.953 3.24216C102.953 1.85283 101.823 0.726562 100.429 0.726562C99.0359 0.726562 97.9062 1.85283 97.9062 3.24216C97.9062 4.63148 99.0359 5.75776 100.429 5.75776Z" fill="#B9D4DB"/>
<path d="M103.361 23.0024C106.702 23.0024 109.41 20.3024 109.41 16.9719C109.41 13.6413 106.702 10.9414 103.361 10.9414C100.021 10.9414 97.3125 13.6413 97.3125 16.9719C97.3125 20.3024 100.021 23.0024 103.361 23.0024Z" fill="#B9D4DB"/>
<path d="M45.0273 155.965L51.6842 159.75H51.6847L45.0273 155.965Z" fill="#026FBB"/>
<path d="M119.696 98.4883L110.58 93.2891L105.381 102.405L114.496 107.604L119.696 98.4883Z" fill="#DBE8EC"/>
<path d="M150.501 96.138C156.227 91.8203 160.544 85.9016 162.906 79.1303C165.268 72.3591 165.569 65.0395 163.772 58.0971C161.974 51.1546 158.158 44.9011 152.807 40.1272C147.455 35.3534 140.808 32.2736 133.706 31.2774C126.604 30.2812 119.366 31.4132 112.908 34.5303C106.449 37.6474 101.06 42.6097 97.4216 48.7896C93.7832 54.9695 92.059 62.0895 92.4669 69.2493C92.8749 76.4091 95.3968 83.2871 99.7137 89.0137C102.58 92.8168 106.168 96.0178 110.272 98.4342C114.376 100.85 118.915 102.435 123.631 103.096C128.348 103.758 133.148 103.484 137.758 102.29C142.368 101.096 146.698 99.0056 150.501 96.138ZM105.359 84.7632C101.881 80.1527 99.8492 74.6145 99.5195 68.8492C99.1898 63.0838 100.577 57.3501 103.506 52.3732C106.435 47.3964 110.775 43.3999 115.975 40.8893C121.176 38.3786 127.004 37.4666 132.723 38.2684C138.442 39.0702 143.794 41.55 148.104 45.394C152.413 49.2381 155.486 54.2738 156.933 59.8642C158.381 65.4547 158.138 71.3488 156.235 76.8013C154.333 82.2537 150.856 87.0195 146.245 90.4959C140.062 95.1559 132.282 97.1698 124.615 96.0948C116.948 95.0198 110.021 90.9439 105.359 84.7632Z" fill="#0076C8"/>
<path opacity="0.76" d="M128.669 96.3811C144.794 96.3811 157.865 83.3094 157.865 67.1847C157.865 51.06 144.794 37.9883 128.669 37.9883C112.544 37.9883 99.4727 51.06 99.4727 67.1847C99.4727 83.3094 112.544 96.3811 128.669 96.3811Z" fill="white"/>
<path d="M123.252 101.142L108.651 92.8142C108.097 92.4983 107.392 92.6912 107.076 93.245L85.7205 130.688C85.4046 131.242 85.5975 131.947 86.1513 132.262L100.752 140.59C101.306 140.906 102.011 140.713 102.327 140.16L123.683 102.717C123.999 102.163 123.806 101.458 123.252 101.142Z" fill="#0076C8"/>
<path d="M102.327 140.163L123.683 102.72C123.759 102.588 123.807 102.443 123.826 102.293C123.845 102.142 123.834 101.99 123.794 101.843C123.754 101.697 123.686 101.56 123.593 101.441C123.5 101.321 123.384 101.22 123.253 101.145L119.621 99.0742C119.887 99.226 120.082 99.4771 120.163 99.7724C120.243 100.068 120.204 100.383 120.052 100.649L98.6958 138.092C98.6207 138.223 98.5204 138.339 98.4006 138.432C98.2809 138.525 98.1439 138.593 97.9977 138.633C97.8515 138.673 97.6988 138.684 97.5484 138.665C97.398 138.646 97.2528 138.597 97.1211 138.522L100.753 140.594C100.884 140.669 101.029 140.717 101.18 140.736C101.33 140.755 101.483 140.744 101.629 140.704C101.775 140.664 101.912 140.596 102.032 140.503C102.152 140.41 102.252 140.295 102.327 140.163Z" fill="#026FBB"/>
<path d="M89.2316 132.692L110.588 95.2495C110.663 95.1178 110.763 95.0021 110.883 94.9092C111.003 94.8163 111.139 94.7479 111.286 94.7079C111.432 94.6679 111.585 94.6571 111.735 94.6761C111.885 94.6951 112.031 94.7435 112.162 94.8186L116.196 97.1192L108.651 92.8157C108.385 92.664 108.069 92.6242 107.774 92.705C107.479 92.7858 107.228 92.9806 107.076 93.2465L85.72 130.689C85.5683 130.955 85.5285 131.271 85.6093 131.566C85.6901 131.861 85.8849 132.112 86.1508 132.264L89.6624 134.267C89.5307 134.192 89.4151 134.092 89.3222 133.972C89.2292 133.852 89.1608 133.715 89.1208 133.569C89.0808 133.423 89.07 133.27 89.089 133.119C89.108 132.969 89.1565 132.824 89.2316 132.692Z" fill="#026FBB"/>
<path d="M86.077 128.674L103.879 138.827C104.145 138.979 104.34 139.23 104.42 139.525C104.501 139.821 104.461 140.136 104.31 140.402L102.61 143.381C101.611 145.133 99.9568 146.416 98.0113 146.949C96.0659 147.481 93.9887 147.219 92.2366 146.219L85.6411 142.457C84.7736 141.963 84.0121 141.302 83.3999 140.513C82.7878 139.724 82.3371 138.822 82.0736 137.858C81.81 136.895 81.7388 135.889 81.8639 134.898C81.9891 133.908 82.3082 132.951 82.803 132.084L84.5022 129.104C84.6539 128.838 84.9051 128.644 85.2004 128.563C85.4957 128.482 85.8111 128.522 86.077 128.674Z" fill="#DBE8EC"/>
<path d="M102.612 143.384L104.311 140.405C104.463 140.139 104.503 139.824 104.422 139.528C104.341 139.233 104.147 138.982 103.881 138.83L100.234 136.75C100.498 136.902 100.692 137.153 100.773 137.448C100.853 137.743 100.813 138.057 100.661 138.323L98.9622 141.302C97.9629 143.054 96.3085 144.337 94.3631 144.87C92.4176 145.402 90.3404 145.139 88.5883 144.14L85.6367 142.457L85.6428 142.461L92.2384 146.222C93.1059 146.717 94.0624 147.036 95.0532 147.161C96.044 147.287 97.0498 147.215 98.0131 146.952C98.9764 146.688 99.8783 146.238 100.667 145.625C101.457 145.013 102.117 144.252 102.612 143.384Z" fill="#BAD5DB"/>
<path d="M83.2557 131.773L85.0757 128.866C85.2382 128.606 85.4971 128.422 85.7955 128.353C86.0939 128.285 86.4073 128.337 86.6669 128.5L90.2255 130.728C89.9661 130.567 89.6533 130.515 89.3556 130.583C89.058 130.652 88.7998 130.836 88.6376 131.095L86.8176 134.002C85.7473 135.712 85.3999 137.777 85.8519 139.742C86.3039 141.708 87.5183 143.414 89.2278 144.484L92.1079 146.287L92.1016 146.284L85.6659 142.254C84.8194 141.724 84.0856 141.033 83.5064 140.219C82.9272 139.406 82.5138 138.486 82.29 137.513C82.0662 136.539 82.0363 135.532 82.202 134.547C82.3677 133.562 82.7257 132.619 83.2557 131.773Z" fill="#BAD5DB"/>
<path d="M124.679 73.8897C124.679 71.2061 124.984 69.0929 125.592 67.5378C126.2 65.9867 127.183 64.6409 128.548 63.5001C129.908 62.3594 130.944 61.3172 131.651 60.3734C132.358 59.4256 132.716 58.3833 132.716 57.2467C132.716 54.4729 131.52 53.086 129.127 53.086C128.021 53.086 127.129 53.4922 126.451 54.2965C125.769 55.1048 125.411 56.1963 125.374 57.575H116.043C116.076 53.9067 117.235 51.0467 119.516 48.995C121.798 46.9475 125 45.9258 129.123 45.9258C133.226 45.9258 136.407 46.8736 138.66 48.7653C140.913 50.6569 142.043 53.3486 142.043 56.8364C142.043 58.3628 141.739 59.7497 141.13 60.9971C140.522 62.2445 139.548 63.5248 138.204 64.8255L135.03 67.7758C134.13 68.6374 133.501 69.5238 133.152 70.4347C132.802 71.3456 132.609 72.4986 132.572 73.8938H124.679V73.8897ZM123.545 82.2686C123.545 80.9104 124.038 79.7943 125.021 78.9203C126.003 78.0463 127.232 77.6113 128.704 77.6113C130.175 77.6113 131.405 78.0463 132.387 78.9203C133.369 79.7943 133.863 80.9104 133.863 82.2686C133.863 83.6267 133.369 84.7428 132.387 85.6168C131.4 86.4908 130.175 86.9258 128.704 86.9258C127.232 86.9258 126.003 86.4908 125.021 85.6168C124.038 84.7428 123.545 83.6267 123.545 82.2686Z" fill="#F1B740"/>
</svg>
