<svg xmlns="http://www.w3.org/2000/svg" width="24" height="25" viewBox="0 0 24 25" fill="none">
  <path d="M19.6 21.1016L13.3 14.8016C12.8 15.2016 12.225 15.5182 11.575 15.7516C10.925 15.9849 10.2333 16.1016 9.5 16.1016C7.68333 16.1016 6.14583 15.4724 4.8875 14.2141C3.62917 12.9557 3 11.4182 3 9.60156C3 7.7849 3.62917 6.2474 4.8875 4.98906C6.14583 3.73073 7.68333 3.10156 9.5 3.10156C11.3167 3.10156 12.8542 3.73073 14.1125 4.98906C15.3708 6.2474 16 7.7849 16 9.60156C16 10.3349 15.8833 11.0266 15.65 11.6766C15.4167 12.3266 15.1 12.9016 14.7 13.4016L21 19.7016L19.6 21.1016ZM9.5 14.1016C10.75 14.1016 11.8125 13.6641 12.6875 12.7891C13.5625 11.9141 14 10.8516 14 9.60156C14 8.35156 13.5625 7.28906 12.6875 6.41406C11.8125 5.53906 10.75 5.10156 9.5 5.10156C8.25 5.10156 7.1875 5.53906 6.3125 6.41406C5.4375 7.28906 5 8.35156 5 9.60156C5 10.8516 5.4375 11.9141 6.3125 12.7891C7.1875 13.6641 8.25 14.1016 9.5 14.1016Z" fill="#131516"/>
</svg>